<?xml version="1.0" encoding="UTF-8" standalone="no"?>
<svg xmlns="http://www.w3.org/2000/svg" version="1.2" width="300.000000pt" height="300.000000pt" viewBox="0 0 300.000000pt 287.000000pt" preserveAspectRatio="xMidYMid meet">
  <metadata>
Created by potrace 1.10, written by Peter Selinger 2001-2011
</metadata>
  <g transform="translate(0.000000,287.000000) scale(0.100000,-0.100000)" fill="#000000" stroke="none">
    <path d="M776 2860 c-20 -59 -33 -119 -26 -131 25 -47 22 -54 -28 -55 -27 -1 -74 -13 -112 -29 -56 -25 -77 -28 -150 -27 -62 1 -102 -4 -147 -19 -35 -11 -78 -19 -97 -18 -19 2 -37 1 -40 -2 -5 -4 35 -398 50 -491 l6 -37 51 6 c29 3 72 15 97 26 34 16 69 21 145 22 76 1 115 7 163 25 l63 23 17 -24 c9 -13 16 -33 17 -44 0 -14 8 -21 27 -23 31 -4 30 0 53 -220 9 -78 13 -146 11 -151 -3 -5 -18 -12 -32 -15 -19 -5 -32 -1 -49 16 -27 27 -44 78 -26 78 13 0 15 36 2 44 -11 7 -7 48 13 141 9 38 16 72 16 74 0 3 -11 -6 -25 -19 -16 -15 -23 -30 -19 -40 16 -37 12 -57 -10 -55 -13 1 -14 1 -3 -2 9 -2 17 -11 17 -19 0 -10 -13 -14 -48 -14 -27 0 -71 -7 -98 -15 -61 -19 -74 -19 -74 -1 0 20 15 28 77 40 l54 11 -36 11 c-24 8 -38 8 -42 1 -3 -6 -1 -7 5 -3 6 3 14 1 18 -5 5 -9 -2 -10 -25 -6 -20 4 -30 3 -26 -3 3 -6 1 -10 -4 -10 -6 0 -11 14 -11 30 0 30 13 40 25 20 4 -6 11 -8 16 -5 11 7 -18 52 -42 65 -16 9 -17 4 -16 -48 1 -31 6 -60 10 -63 5 -3 1 -9 -8 -12 -9 -4 -13 -3 -10 3 3 6 1 10 -5 10 -6 0 -8 11 -6 25 4 19 -2 30 -20 42 -36 23 -40 10 -10 -34 14 -20 26 -45 26 -54 0 -9 7 -19 15 -23 8 -3 15 -12 15 -19 0 -8 7 -29 16 -47 12 -24 14 -34 5 -39 -11 -7 -5 -41 8 -41 3 0 12 -9 19 -21 12 -18 11 -24 -9 -45 -12 -13 -31 -24 -41 -24 -32 0 -77 -29 -93 -61 -9 -16 -16 -51 -16 -77 1 -125 -10 -196 -35 -225 -34 -40 -30 -56 6 -22 25 24 30 26 36 11 4 -10 -4 -31 -20 -54 -36 -52 -33 -63 5 -16 20 25 29 46 26 61 -2 13 0 23 4 23 5 0 10 -12 10 -27 2 -24 2 -25 6 -5 5 26 22 30 24 5 1 -17 11 16 24 82 6 29 5 28 -15 -7 -22 -40 -44 -49 -54 -22 -6 16 6 100 24 172 6 25 5 32 -6 32 -16 0 -13 34 5 68 14 26 65 46 98 38 22 -6 25 -5 15 7 -10 11 -9 17 4 28 13 11 15 11 14 -2 -4 -25 -1 -35 18 -57 9 -11 23 -28 30 -39 17 -24 62 -24 62 0 0 9 5 17 10 17 6 0 10 -4 10 -10 0 -5 9 -14 19 -20 17 -9 22 -5 37 25 9 19 14 41 11 50 -4 8 0 26 7 40 l13 25 16 -24 c9 -13 25 -27 36 -31 19 -6 36 -55 19 -55 -5 0 -20 -25 -34 -56 l-25 -56 -93 7 c-74 5 -100 3 -131 -9 -48 -20 -51 -20 -75 4 -27 27 -25 61 5 96 31 36 23 46 -12 12 -15 -15 -25 -37 -25 -53 0 -34 21 -75 39 -75 8 0 13 -11 13 -28 0 -15 5 -33 12 -40 13 -13 5 -27 -11 -17 -6 3 -11 23 -11 43 -1 31 -2 34 -11 19 -8 -13 -7 -32 2 -67 11 -42 10 -52 -5 -75 -10 -15 -14 -34 -11 -45 4 -14 2 -20 -8 -20 -9 0 -17 6 -19 12 -3 7 -7 2 -10 -10 -4 -12 -2 -20 3 -16 5 3 9 -2 9 -11 0 -9 -6 -15 -13 -13 -7 2 -28 -9 -45 -24 -25 -21 -34 -38 -39 -73 -3 -25 -10 -48 -16 -52 -13 -8 -37 25 -30 43 15 38 7 150 -20 277 -16 77 -26 142 -23 145 4 3 21 6 39 6 l32 1 0 135 c0 107 4 143 18 174 20 44 17 52 -11 37 -26 -14 -92 -97 -71 -89 14 6 16 -6 13 -100 -2 -86 -6 -108 -18 -110 -15 -3 -16 -1 -50 134 -20 77 -20 74 5 74 20 0 19 3 -10 35 -17 19 -38 50 -48 68 l-17 32 -7 -50 c-4 -27 -10 -62 -14 -77 -6 -23 -4 -28 12 -28 16 0 22 -14 37 -95 21 -110 21 -110 0 -110 -9 0 -24 22 -38 56 -12 31 -32 70 -45 87 -19 28 -20 32 -5 40 13 7 8 13 -28 31 -24 11 -57 21 -72 21 l-29 0 41 -44 c44 -48 89 -130 116 -212 l17 -51 37 12 c20 7 38 12 38 12 1 -1 20 -85 43 -187 38 -172 47 -267 28 -286 -14 -14 -7 -56 16 -94 26 -46 32 -49 32 -16 0 13 -2 23 -5 21 -9 -6 -32 53 -28 72 2 13 14 19 41 21 36 3 39 1 54 -38 l16 -41 23 53 23 53 -3 -120 c-2 -73 -1 -95 3 -55 l6 65 26 -75 c15 -41 38 -106 52 -145 15 -38 26 -92 27 -118 0 -26 6 -62 13 -80 8 -18 17 -44 21 -59 l6 -28 -45 7 c-63 8 -59 -12 6 -31 28 -9 55 -13 60 -10 5 2 11 -7 15 -22 6 -23 1 -32 -28 -58 -19 -17 -43 -36 -54 -42 -16 -10 -14 -11 12 -7 20 3 46 20 69 43 36 37 37 41 26 69 -7 16 -20 32 -28 35 -9 4 -13 14 -10 26 3 11 2 18 -3 15 -15 -10 -50 97 -50 156 0 52 2 58 23 62 18 4 17 4 -6 6 -16 0 -26 5 -22 11 3 6 1 10 -4 10 -15 0 -14 30 2 30 6 0 4 5 -6 11 -39 23 -97 182 -97 267 0 49 16 63 32 27 6 -14 17 -24 24 -21 8 3 16 0 20 -6 4 -7 3 -8 -4 -4 -7 4 -12 1 -12 -7 0 -8 7 -18 16 -21 24 -9 36 -7 28 5 -3 6 0 15 7 20 11 6 11 11 1 21 -9 9 -12 9 -12 -1 0 -11 -3 -11 -15 -1 -8 6 -19 9 -24 5 -6 -3 -13 6 -17 20 -3 14 -13 25 -21 25 -13 0 -13 3 -3 15 7 8 16 12 21 9 5 -3 9 3 9 12 0 15 -2 16 -17 2 -10 -8 -25 -19 -33 -23 -13 -8 -13 -6 -2 7 9 11 10 18 2 23 -19 12 -11 26 9 16 16 -9 18 -8 14 8 -5 19 -14 20 -44 7 -17 -7 -21 -35 -8 -51 4 -6 -2 -31 -13 -57 l-20 -48 -19 24 c-11 13 -19 35 -19 49 0 25 56 104 71 100 4 -2 20 2 33 7 17 6 24 14 20 25 -4 9 -1 15 7 15 23 0 34 -14 36 -43 2 -24 0 -27 -12 -17 -8 7 -12 17 -8 24 3 6 0 6 -8 -1 -23 -22 6 -38 68 -38 36 0 58 -5 61 -13 2 -7 -6 -12 -20 -12 -54 0 -60 -2 -53 -27 6 -26 2 -28 -25 -13 -15 8 -18 7 -14 -3 6 -16 74 -40 74 -26 0 5 -8 9 -17 9 -11 0 -14 3 -8 8 6 4 10 14 10 22 0 20 56 30 71 12 8 -11 13 -11 25 4 7 10 9 15 2 11 -17 -10 -47 23 -34 36 16 16 13 37 -3 37 -8 0 -21 -6 -28 -13 -22 -22 -45 -26 -65 -12 -10 9 -13 14 -5 15 17 0 15 15 -5 35 -13 13 -14 18 -3 25 20 13 3 28 -27 23 l-28 -4 22 19 c12 11 19 22 16 26 -4 3 -1 6 5 6 7 0 12 -6 12 -12 0 -25 16 -39 35 -32 17 7 17 8 -3 15 -30 11 -27 27 8 47 40 23 39 37 -1 16 -26 -13 -33 -13 -40 -3 -9 15 16 49 37 49 7 0 25 11 41 24 l28 23 38 -24 c21 -13 46 -38 55 -54 10 -16 27 -32 40 -35 16 -5 22 -13 22 -35 0 -16 -4 -29 -8 -29 -5 0 -14 -12 -21 -27 -9 -20 -15 -23 -23 -15 -7 7 -21 12 -31 12 -15 0 -18 -5 -13 -24 8 -31 -3 -59 -20 -52 -7 3 -16 0 -20 -7 -4 -7 -4 -9 1 -5 11 10 47 -11 40 -23 -4 -5 -1 -9 5 -9 8 0 9 10 5 29 -7 31 3 44 24 32 9 -6 10 -11 2 -15 -6 -4 -11 -14 -11 -22 0 -11 6 -10 28 6 27 20 69 19 56 -1 -3 -5 0 -9 5 -9 6 0 11 7 11 15 0 8 -4 15 -9 15 -16 0 -17 33 -3 62 16 33 32 45 32 24 0 -8 -4 -18 -10 -21 -13 -8 -13 -45 -1 -45 5 0 17 -7 26 -16 15 -15 15 -14 9 12 -4 16 -10 33 -15 38 -10 11 0 39 18 49 20 12 -3 37 -33 37 -27 0 -28 3 -14 31 30 55 66 -19 74 -151 5 -82 41 -446 52 -522 4 -31 1 -39 -23 -58 l-28 -22 -3 28 c-2 16 -8 34 -14 41 -5 7 -7 17 -3 23 3 5 2 10 -3 10 -20 0 -31 78 -26 185 5 86 3 118 -9 145 -14 33 -15 28 -10 -88 5 -92 3 -126 -6 -132 -17 -10 -31 -76 -19 -88 7 -7 1 -16 -17 -28 -26 -17 -28 -17 -41 1 -19 26 -18 34 12 57 14 11 23 23 20 26 -3 3 -14 -3 -25 -12 -10 -10 -21 -14 -24 -9 -10 16 -77 225 -77 239 0 9 -5 12 -13 8 -6 -4 3 7 21 24 36 35 41 52 14 52 -10 0 -24 6 -31 13 -11 10 -11 8 -2 -10 8 -15 17 -20 29 -16 10 3 8 -2 -7 -12 -23 -18 -24 -17 -42 6 -10 13 -19 20 -18 14 0 -5 6 -19 14 -29 17 -23 9 -42 -11 -25 -10 8 -14 8 -14 0 0 -6 11 -16 25 -21 23 -9 25 -15 25 -66 0 -49 -2 -55 -15 -44 -11 9 -9 0 6 -35 12 -27 18 -56 15 -70 -3 -13 -2 -27 4 -30 6 -3 7 -18 4 -33 -7 -30 -24 -54 -24 -33 0 9 -5 8 -16 -3 -8 -9 -20 -14 -25 -11 -5 4 -9 1 -9 -4 0 -14 27 -14 36 0 4 8 9 7 15 -2 6 -10 9 -11 9 -1 0 28 17 9 35 -40 13 -37 15 -53 7 -56 -8 -2 -9 -9 -3 -20 5 -9 10 -53 12 -97 3 -63 -1 -88 -15 -118 -22 -44 -18 -51 19 -41 35 9 40 25 23 79 l-15 45 58 0 c56 0 59 -1 59 -24 0 -14 5 -28 10 -31 6 -3 7 -17 4 -30 -3 -12 -1 -26 5 -29 29 -18 3 -26 -83 -26 -62 0 -106 -5 -131 -16 -21 -8 -49 -13 -64 -9 -24 5 -27 12 -44 98 -10 50 -20 99 -22 107 -2 8 -26 119 -54 245 -28 127 -53 240 -56 252 -3 13 -12 23 -20 23 -14 0 -32 -43 -27 -68 2 -6 -2 -29 -8 -50 -12 -39 -32 -386 -23 -408 9 -24 60 -38 93 -24 41 17 38 33 -5 27 -35 -5 -65 11 -65 35 0 5 15 24 33 41 30 30 31 30 4 13 -16 -10 -29 -16 -30 -14 -1 2 0 82 3 178 l5 175 27 -115 c36 -149 108 -471 108 -482 0 -4 -15 -8 -34 -8 -55 0 -62 -18 -41 -108 24 -105 30 -115 63 -107 26 6 34 15 33 32 -1 5 164 10 366 13 l368 5 15 32 15 33 195 0 195 0 15 -33 15 -32 368 -5 c202 -3 367 -8 366 -13 -1 -17 7 -26 33 -32 33 -8 39 2 63 107 15 63 15 80 5 93 -13 16 -60 21 -60 6 0 -5 -20 -5 -47 0 -25 5 -49 7 -51 4 -3 -3 3 -5 14 -5 18 -1 18 -1 1 -14 -16 -13 -14 -14 24 -9 26 4 40 2 36 -4 -3 -5 0 -10 8 -10 8 0 12 4 9 9 -3 4 -2 8 3 8 4 0 13 -10 18 -23 11 -23 -2 -107 -18 -123 -11 -11 -26 15 -28 46 -1 15 -3 19 -6 9 -6 -24 -36 -26 -373 -24 -313 1 -310 1 -366 51 -23 20 -34 21 -224 21 -190 0 -201 -1 -223 -21 -53 -49 -61 -50 -411 -52 -308 -1 -330 -2 -342 -19 -20 -27 -33 -9 -40 51 -5 48 -4 50 31 73 32 22 38 23 62 10 l26 -14 -29 -5 c-26 -4 -29 -9 -29 -43 0 -33 3 -37 26 -37 34 0 53 23 47 55 -4 21 -3 23 9 13 10 -8 13 -22 9 -40 -5 -26 -3 -28 24 -28 17 0 30 4 30 9 0 5 -9 7 -20 4 -22 -6 -29 22 -7 30 9 4 9 6 0 6 -7 1 -13 6 -13 12 0 5 10 9 23 7 16 -2 23 -11 27 -33 4 -24 10 -30 30 -30 21 0 26 6 31 38 4 24 2 37 -6 37 -7 0 -9 -13 -7 -35 3 -27 1 -35 -12 -35 -12 0 -16 9 -16 35 0 35 0 35 -47 36 -91 2 4 17 117 18 96 1 133 -6 131 -23 -3 -17 1 -18 19 -1 17 15 41 19 152 22 127 3 133 4 154 28 27 32 74 46 140 44 27 -2 55 1 62 4 6 4 48 5 94 2 155 -10 177 -15 212 -49 31 -30 36 -31 112 -29 43 0 179 3 301 5 286 4 284 22 -3 26 -154 3 -208 1 -220 -9 -26 -22 -33 2 -23 81 5 41 20 181 34 310 13 129 31 294 39 365 8 72 18 159 21 195 11 126 17 160 29 160 18 0 19 7 -29 -430 -8 -80 -22 -206 -30 -280 -8 -74 -19 -173 -25 -220 -5 -47 -9 -103 -9 -125 l1 -40 8 45 c4 25 31 266 60 535 49 455 54 491 74 507 16 13 19 21 11 34 -6 9 -15 16 -19 14 -5 -1 -12 4 -16 10 -5 8 -9 7 -13 -3 -4 -11 0 -15 13 -12 10 2 21 -3 24 -10 6 -17 -10 -30 -19 -15 -3 5 -15 10 -26 10 -16 0 -18 4 -10 18 10 19 5 65 -11 99 -10 21 -71 43 -121 43 -13 0 -42 15 -66 32 -38 30 -40 34 -24 45 9 7 24 13 34 13 9 0 36 9 60 20 24 11 60 20 80 20 19 0 40 5 47 12 9 9 12 3 12 -31 0 -24 -4 -40 -9 -36 -6 3 -14 -2 -19 -11 -9 -16 -12 -16 -51 -1 -23 10 -51 17 -64 16 -19 0 -18 -2 8 -12 17 -7 50 -23 74 -35 23 -13 40 -19 36 -13 -3 6 -1 11 4 11 6 0 11 -6 11 -14 0 -8 5 -18 12 -22 7 -4 8 -3 4 4 -3 6 2 82 13 169 25 199 32 294 22 268 -5 -11 -14 -75 -21 -143 -13 -119 -14 -124 -41 -138 -37 -19 -64 -18 -110 4 -30 14 -37 21 -33 39 4 16 0 23 -17 28 -22 7 -22 8 -2 19 11 6 62 50 113 98 102 97 116 122 126 237 6 67 8 70 35 76 16 4 31 10 34 14 6 11 55 1 55 -10 0 -5 -15 -9 -34 -9 l-34 0 -12 -67 c-11 -68 -42 -338 -55 -488 -4 -44 -12 -88 -17 -97 -6 -12 -4 -27 6 -45 14 -27 14 -27 9 17 -6 42 -5 44 11 30 15 -11 17 -26 14 -77 -2 -34 -2 -60 1 -57 3 3 40 -97 41 -113 0 -1 -13 0 -28 3 -35 7 -66 -20 -34 -30 18 -6 23 -31 10 -52 -4 -5 -9 -31 -12 -57 -7 -56 10 -63 49 -21 14 15 31 24 39 21 12 -5 12 -1 -1 24 -8 16 -17 29 -19 29 -3 0 -3 -4 1 -9 3 -5 1 -12 -5 -16 -6 -4 -8 -9 -6 -13 2 -4 -2 -13 -10 -20 -12 -11 -15 -10 -21 4 -3 9 -2 19 4 23 14 9 24 41 13 41 -6 0 -10 5 -10 11 0 6 5 7 13 2 6 -4 23 -9 36 -11 18 -2 22 1 17 13 -3 9 -6 19 -6 21 0 2 -4 4 -10 4 -5 0 -6 -8 -3 -17 6 -16 5 -17 -11 -3 -11 8 -14 16 -7 18 6 2 11 16 11 32 0 19 6 29 19 33 11 3 29 19 40 37 10 18 37 43 60 55 35 20 42 21 52 8 24 -28 68 -44 89 -33 14 7 20 7 20 0 0 -5 -6 -10 -14 -10 -9 0 -12 -8 -8 -25 5 -29 1 -30 -38 -10 -17 9 -30 12 -30 7 0 -5 11 -14 25 -20 33 -15 36 -57 3 -49 -22 6 -22 6 -4 -8 27 -21 35 -19 42 10 l6 25 19 -21 c24 -28 24 -33 -2 -26 -17 5 -20 2 -16 -15 3 -11 -1 -27 -9 -35 -8 -8 -12 -23 -9 -33 9 -27 -34 -34 -60 -10 -27 26 -45 25 -45 -1 0 -11 -4 -18 -9 -14 -5 3 -12 1 -16 -4 -3 -6 5 -8 20 -5 19 3 23 1 19 -11 -3 -8 -10 -12 -15 -9 -5 3 -9 0 -9 -6 0 -6 -4 -8 -10 -5 -5 3 -10 2 -10 -3 0 -17 30 -22 37 -7 4 12 8 13 20 3 12 -10 11 -14 -9 -30 -24 -18 -43 -24 -34 -10 2 4 -5 8 -17 9 -12 0 -17 -1 -10 -4 7 -2 10 -10 7 -18 -8 -19 27 -51 51 -47 20 4 20 4 0 -12 -20 -15 -20 -15 2 -16 12 0 28 7 37 15 19 19 40 20 33 1 -3 -8 1 -17 9 -20 21 -8 26 -8 20 2 -5 8 42 69 47 61 2 -2 8 -28 13 -56 10 -52 4 -69 -14 -37 -8 14 -10 14 -15 1 -4 -10 2 -17 17 -21 18 -4 33 -32 74 -128 28 -68 56 -141 61 -163 14 -52 14 -122 0 -131 -6 -3 -10 1 -9 12 4 37 0 55 -11 48 -6 -3 -15 0 -20 7 -13 21 -11 35 3 21 7 -7 17 -12 23 -12 9 1 -23 24 -35 25 -3 0 -16 6 -30 13 l-25 13 23 -17 c12 -9 22 -23 22 -30 0 -8 9 -19 20 -26 11 -7 20 -22 19 -33 0 -11 -3 -14 -6 -7 -2 6 -12 12 -21 12 -13 0 -11 -4 6 -16 21 -15 32 -42 12 -29 -5 3 -10 2 -10 -4 0 -19 19 -21 29 -4 16 27 13 -2 -3 -42 -8 -19 -20 -35 -26 -35 -7 0 -5 7 4 16 17 17 22 39 7 30 -5 -4 -12 0 -15 6 -3 7 -3 2 0 -11 4 -16 3 -21 -5 -17 -7 4 -11 -1 -11 -13 0 -12 5 -21 11 -21 6 0 9 -6 6 -13 -2 -6 -9 -11 -15 -10 -6 2 -9 -3 -6 -10 3 -8 -16 -33 -42 -57 -26 -24 -39 -40 -28 -36 10 4 24 9 29 10 6 2 18 6 28 11 9 4 28 4 41 1 22 -5 24 -3 22 26 -1 28 3 33 34 42 34 10 35 13 26 39 -9 25 -7 31 13 46 20 15 21 19 7 30 -22 19 -20 58 4 71 20 11 20 11 -1 39 -37 51 -11 50 39 0 34 -34 57 -49 76 -49 33 0 33 10 1 40 -14 13 -25 31 -25 39 0 9 -7 30 -16 46 -18 32 -36 98 -36 130 0 39 20 106 36 124 9 9 16 29 16 44 0 15 13 41 30 60 17 19 30 37 30 41 0 3 -14 6 -31 6 -40 0 -122 -82 -164 -164 -30 -56 -30 -56 -47 -35 -10 12 -18 29 -18 39 0 10 -6 30 -14 45 -10 20 -12 35 -5 53 7 18 6 29 -4 41 -18 20 -28 59 -17 66 11 7 8 45 -3 45 -5 0 -5 9 -2 20 4 12 2 20 -5 20 -6 0 -8 4 -5 10 3 5 1 18 -4 27 -6 10 -11 14 -11 8 -1 -5 -8 8 -17 30 -16 39 -20 155 -7 198 9 27 43 36 89 22 92 -29 175 -38 216 -25 21 7 39 20 39 28 0 30 -44 74 -117 116 -70 41 -73 44 -48 50 15 4 38 18 51 31 27 27 34 71 9 62 -22 -9 -29 12 -11 31 39 44 62 162 35 189 -19 19 -128 -15 -158 -50 -9 -12 -8 -18 4 -31 19 -18 13 -46 -17 -89 -39 -55 -149 -87 -191 -54 -20 15 -34 67 -18 67 16 0 14 18 -13 85 -19 48 -31 64 -60 78 -42 21 -70 18 -110 -14 -21 -17 -27 -28 -24 -50 3 -15 1 -26 -3 -23 -9 5 -2 -62 7 -78 4 -6 1 -13 -5 -17 -15 -10 -3 -41 15 -41 7 0 16 -16 19 -37 3 -21 8 -50 10 -66 3 -15 9 -33 15 -40 38 -45 47 -52 68 -53 15 0 22 5 22 18 0 10 -5 18 -11 18 -5 0 -7 5 -3 11 3 6 -6 3 -20 -6 -15 -10 -26 -14 -25 -9 3 18 -13 54 -22 48 -8 -5 -12 24 -12 89 0 15 -3 27 -8 27 -4 0 -6 9 -4 20 2 11 0 20 -5 20 -4 0 -7 8 -6 18 2 9 -1 31 -6 47 -5 17 -11 41 -14 55 l-4 25 14 -24 c13 -23 14 -24 20 -5 3 10 4 3 1 -18 -2 -20 -1 -39 3 -42 3 -4 7 -13 8 -20 2 -12 33 -66 39 -66 7 0 -9 56 -18 61 -16 11 0 39 22 39 14 0 19 -5 15 -15 -4 -8 -11 -12 -17 -8 -5 3 -7 1 -3 -5 4 -7 15 -6 34 4 43 22 47 16 11 -16 -31 -27 -32 -30 -11 -30 12 0 22 -5 22 -11 0 -5 4 -7 10 -4 6 3 10 -1 10 -10 0 -10 -5 -13 -12 -9 -7 4 -5 -2 6 -14 16 -18 17 -24 6 -37 -11 -14 -10 -14 12 -6 49 19 59 -17 26 -102 l-11 -28 -18 31 c-21 34 -26 37 -26 15 0 -8 13 -26 28 -41 l27 -26 17 36 c10 20 14 43 11 52 -9 24 13 48 31 33 11 -10 11 -14 1 -20 -19 -12 -2 -22 18 -11 14 8 28 5 54 -8 47 -24 63 -44 55 -70 -8 -25 -42 -26 -50 -1 -3 11 -17 27 -32 36 -28 19 -24 6 10 -32 17 -20 18 -26 7 -53 -18 -44 -41 -53 -84 -35 -19 8 -45 15 -56 15 -12 0 -19 4 -16 8 3 5 -1 9 -9 9 -8 0 -12 -4 -9 -9 3 -4 -6 -8 -20 -8 -20 0 -24 4 -20 18 5 14 4 14 -4 2 -6 -8 -8 -18 -6 -22 3 -4 -15 -8 -41 -8 -45 0 -46 1 -66 47 -11 25 -26 51 -34 57 -19 15 -9 126 11 126 17 0 18 -37 2 -43 -8 -3 -6 -6 4 -6 9 -1 24 9 33 22 15 21 14 22 -15 31 -36 11 -36 14 -12 231 l17 150 30 5 c23 4 30 11 30 27 0 13 6 28 13 35 7 7 12 18 12 26 0 15 17 11 82 -18 28 -12 69 -18 138 -19 79 -2 111 -7 159 -26 33 -14 80 -25 105 -25 l44 0 11 98 c33 266 48 418 44 424 -2 4 -17 5 -33 2 -17 -4 -59 3 -102 16 -59 18 -86 21 -140 15 -60 -5 -75 -3 -145 25 -43 17 -100 34 -126 37 -36 5 -47 9 -42 20 15 41 15 65 0 118 l-17 58 -29 -53 c-26 -48 -29 -63 -33 -179 -7 -174 -11 -191 -48 -191 -22 0 -40 -11 -67 -38 -44 -47 -97 -124 -93 -136 2 -5 -2 -12 -9 -17 -17 -10 -23 -98 -10 -144 14 -51 5 -58 -14 -12 -17 40 -31 47 -39 19 -5 -14 -14 -17 -39 -14 -45 5 -72 -17 -63 -52 4 -15 18 -38 31 -50 23 -21 23 -24 7 -39 -15 -16 -15 -17 8 -17 13 0 43 7 67 16 53 20 69 14 75 -28 15 -98 -73 -198 -173 -198 -27 0 -30 2 -19 15 7 8 10 22 6 30 -4 10 1 15 15 15 25 0 34 22 19 49 -10 20 -8 21 42 22 86 1 102 15 27 22 -113 10 -192 55 -154 87 31 25 10 70 -30 68 -11 0 -24 0 -30 2 -30 8 -34 -1 -15 -32 26 -43 25 -50 -7 -44 -16 2 -31 5 -35 5 -4 1 -19 19 -33 41 -17 27 -32 40 -48 40 -12 0 -32 7 -43 15 -12 8 -24 11 -28 8 -3 -3 -6 -1 -6 5 0 6 5 14 10 17 6 3 10 2 10 -3 0 -5 22 -5 55 0 47 7 61 5 96 -13 38 -19 43 -19 57 -5 14 14 13 16 -14 25 -51 18 -78 36 -89 58 -6 11 -17 28 -24 37 -11 13 -8 20 19 43 18 16 36 30 40 33 12 8 30 48 30 64 0 13 -5 13 -32 -4 -43 -26 -56 -25 -32 3 24 26 45 73 37 80 -6 7 -124 -56 -170 -90 -35 -26 -54 -16 -23 12 24 22 26 53 4 83 -16 24 -53 29 -72 10 -8 -8 -16 -5 -32 13 l-21 24 5 -27 c5 -21 3 -28 -9 -28 -8 0 -15 -4 -15 -9 0 -13 25 -20 48 -14 11 2 31 -1 43 -8 l24 -13 -24 -6 c-36 -8 -45 -30 -36 -95 6 -54 11 -63 60 -110 45 -44 51 -54 40 -68 -7 -9 -20 -17 -29 -17 -9 0 -16 -4 -16 -8 0 -14 46 -31 68 -25 15 4 24 -3 36 -25 9 -17 25 -33 36 -37 25 -8 42 -40 70 -135 12 -41 27 -81 32 -87 16 -19 48 -16 48 5 1 16 1 16 14 0 7 -10 37 -24 66 -31 50 -13 51 -14 26 -21 -17 -4 -34 -2 -44 6 -14 10 -14 9 0 -7 16 -17 22 -18 51 -7 65 24 96 13 72 -25 -15 -22 -14 -23 7 -23 13 -1 34 -7 47 -14 l24 -13 -34 -11 c-19 -6 -47 -13 -63 -17 -17 -3 -45 -20 -64 -36 -32 -28 -32 -29 -8 -23 26 6 56 -9 56 -28 0 -10 -30 -7 -62 7 -11 4 -18 3 -18 -5 0 -6 3 -9 8 -6 4 2 16 -2 27 -11 19 -14 19 -14 -10 -11 -28 3 -30 6 -33 46 -3 34 -8 45 -27 54 -35 16 -67 4 -127 -48 -66 -57 -134 -93 -192 -100 -52 -8 -63 6 -73 84 -5 45 19 133 33 119 3 -3 1 -14 -5 -25 -14 -26 -14 -112 -1 -147 9 -25 14 -27 47 -20 56 10 123 49 168 95 82 86 161 94 188 20 4 -12 6 -12 6 -1 1 20 -38 79 -59 91 -10 5 -23 27 -29 47 -8 30 -10 32 -7 8 4 -29 3 -30 -35 -30 l-39 0 0 63 c0 56 -2 62 -15 48 -17 -17 -20 -36 -5 -36 6 0 10 -13 10 -30 0 -16 -5 -30 -11 -30 -6 0 -9 -9 -6 -19 3 -14 -7 -33 -33 -60 -43 -47 -60 -52 -60 -16 0 14 -9 44 -20 65 -11 22 -17 40 -13 40 5 0 3 4 -2 8 -13 8 -55 67 -55 76 0 3 6 6 14 6 20 0 66 40 76 66 7 18 20 25 50 30 22 4 39 9 36 11 -3 3 -22 2 -44 -2 -31 -5 -42 -12 -53 -38 -21 -49 -68 -67 -171 -67 -80 0 -88 2 -88 19 0 24 48 83 61 75 5 -3 9 1 9 8 0 7 9 24 19 38 19 24 19 24 -2 35 -32 16 -30 59 3 63 19 2 32 -5 48 -28 19 -25 30 -30 63 -30 l41 0 -31 39 c-30 37 -32 38 -83 33 -29 -2 -59 -9 -65 -14 -17 -14 -16 -43 2 -62 8 -8 15 -19 15 -24 0 -19 -88 -53 -156 -59 -76 -7 -64 -21 19 -22 l48 -1 -7 -36 c-6 -30 -4 -36 15 -41 11 -3 21 -9 21 -13 0 -5 3 -15 6 -24 5 -12 0 -16 -20 -16 -95 0 -182 103 -168 198 6 42 22 48 75 28 24 -9 54 -16 67 -16 23 0 23 1 8 17 -16 15 -16 18 7 39 13 12 27 35 31 50 9 35 -18 57 -63 52 -25 -3 -34 0 -39 14 -8 28 -22 21 -39 -19 -19 -46 -28 -39 -14 12 13 46 7 134 -10 144 -7 5 -11 12 -9 17 4 12 -49 89 -93 136 -27 28 -45 38 -68 38 -35 0 -35 -1 -50 140 -6 52 -8 111 -5 131 5 27 -1 49 -24 95 -19 38 -32 54 -36 44z m46 -146 c-3 -34 -7 -41 -21 -37 -30 8 -44 64 -30 119 l12 47 22 -44 c15 -31 21 -56 17 -85z m1406 2 c-6 -19 -19 -36 -28 -39 -30 -8 -35 62 -8 118 l23 46 11 -46 c9 -32 9 -55 2 -79z m-1403 -98 c5 -37 46 -388 62 -528 2 -25 7 -52 10 -60 4 -8 7 -60 8 -115 2 -55 12 -169 24 -253 11 -85 18 -158 15 -163 -3 -5 0 -9 5 -9 6 0 11 9 11 20 0 11 5 20 11 20 5 0 7 -5 4 -10 -4 -6 23 4 59 22 43 22 59 34 46 36 -10 2 -32 -4 -49 -12 -40 -21 -50 -20 -61 7 -8 21 -9 21 -11 2 -1 -11 -5 -2 -8 20 -4 22 -2 46 3 53 6 9 6 16 -2 21 -6 3 -18 66 -26 140 -19 157 -19 162 -3 134 14 -24 182 -184 211 -200 18 -10 18 -11 -3 -18 -17 -5 -21 -12 -17 -29 4 -18 -1 -24 -26 -34 -18 -6 -29 -14 -26 -18 4 -3 15 -1 26 5 12 6 30 11 42 11 20 0 20 1 4 25 -19 28 -20 28 66 43 57 11 75 8 50 -8 -8 -5 -26 -7 -40 -4 -20 4 -22 3 -10 -5 23 -17 47 -13 70 11 11 12 21 20 23 17 2 -2 15 -19 30 -37 25 -32 26 -34 11 -66 -10 -20 -33 -42 -60 -56 l-43 -24 -23 21 c-13 12 -45 27 -72 33 -27 6 -56 14 -65 19 -30 16 -111 22 -111 8 0 -8 18 -13 49 -14 27 -1 64 -9 82 -18 17 -10 43 -18 56 -20 43 -4 50 -22 18 -47 -38 -31 -53 -36 -96 -37 -59 -1 -97 -26 -110 -73 -6 -23 -7 -52 -2 -67 6 -22 8 -19 11 24 5 72 22 82 22 13 0 -40 -4 -57 -15 -61 -8 -4 -17 -1 -21 4 -4 8 -10 7 -17 0 -7 -7 -15 -7 -26 2 -10 7 -8 2 3 -11 11 -12 15 -22 10 -22 -33 0 -44 63 -23 117 14 32 13 50 -1 198 -25 257 -32 315 -47 414 -13 88 -14 104 -2 112 29 18 -118 9 -176 -11 -41 -14 -84 -20 -145 -20 -69 0 -102 -5 -154 -25 -72 -27 -136 -33 -136 -12 -1 6 -13 119 -28 250 l-27 237 40 0 c22 0 68 9 102 20 46 14 78 18 130 13 60 -5 77 -2 143 25 59 24 91 31 147 31 l72 1 6 -42z m1568 12 c65 -26 87 -30 163 -29 63 1 100 -3 126 -15 21 -9 58 -16 83 -16 36 0 45 -3 45 -17 0 -13 -29 -266 -40 -350 -1 -10 -67 2 -125 22 -38 14 -78 25 -88 25 -9 0 -16 5 -15 11 2 6 -3 14 -11 17 -8 3 -11 0 -7 -6 10 -17 -28 -34 -44 -19 -10 9 -11 9 -5 -2 7 -11 1 -13 -31 -9 -21 4 -48 9 -59 13 -20 7 -20 6 -1 -9 17 -14 18 -16 3 -16 -9 0 -17 5 -17 10 0 6 -7 10 -16 10 -8 0 -13 4 -10 9 12 19 -86 41 -151 35 -52 -6 -63 -4 -59 7 3 8 12 82 21 164 23 215 13 195 94 195 54 0 86 -7 144 -30z m-1469 -205 c18 -9 40 -30 50 -48 10 -17 32 -47 49 -64 l31 -33 -31 12 c-28 10 -34 9 -63 -15 -17 -15 -43 -27 -57 -27 -23 0 -25 3 -21 35 2 19 1 36 -3 37 -3 2 -9 20 -13 42 -6 33 -5 38 9 32 11 -4 15 -2 12 6 -2 7 -9 12 -15 11 -6 -2 -9 4 -6 12 8 19 18 19 58 0z m1210 0 c3 -8 0 -14 -6 -12 -6 1 -13 -4 -16 -12 -3 -8 0 -11 7 -7 7 5 11 -6 11 -33 0 -23 -5 -41 -10 -41 -7 0 -7 -7 0 -21 28 -51 -27 -67 -80 -22 -29 24 -35 25 -63 15 l-31 -12 31 33 c17 17 38 46 49 64 17 30 63 62 90 63 7 0 14 -7 18 -15z m-584 -89 c0 -3 -8 -12 -17 -22 -16 -16 -16 -16 4 -10 33 11 34 -7 2 -43 -16 -18 -26 -37 -24 -41 7 -11 -62 -33 -80 -26 -20 7 -19 35 3 60 17 21 17 21 -5 2 -13 -11 -23 -29 -23 -40 0 -20 -1 -20 -20 4 -18 23 -28 90 -14 90 19 0 84 -24 84 -31 0 -5 7 -6 17 -2 13 5 12 8 -8 15 -24 10 -24 10 11 28 32 18 70 26 70 16z m-521 -94 c5 -10 12 -53 14 -96 2 -42 7 -79 11 -83 3 -3 17 -1 31 5 34 16 67 15 89 -1 17 -12 17 -14 -1 -36 -16 -20 -29 -24 -79 -25 l-59 -1 -20 -42 c-11 -23 -24 -41 -30 -39 -15 4 -55 86 -61 126 -5 29 0 44 20 75 14 21 26 51 26 67 0 58 38 90 59 50z m989 1 c5 -10 12 -37 15 -61 3 -24 13 -52 23 -63 31 -35 11 -151 -33 -186 -13 -10 -19 -5 -37 30 -20 41 -23 42 -71 43 -61 1 -95 17 -95 44 0 11 3 20 8 21 4 0 20 3 37 5 16 3 39 0 52 -7 13 -7 25 -10 27 -8 3 2 7 39 9 81 5 80 19 118 42 118 8 0 18 -8 23 -17z m310 -7 c10 -6 10 -11 2 -21 -7 -8 -7 -16 -2 -19 6 -3 15 1 22 9 19 23 43 19 35 -5 -7 -23 13 -28 21 -5 4 8 12 15 20 15 8 0 11 -6 8 -15 -4 -8 -2 -15 4 -15 5 0 15 7 22 15 19 23 96 18 165 -10 33 -13 77 -25 97 -25 40 0 51 -9 42 -34 -9 -24 -71 -20 -147 9 -53 20 -82 24 -154 23 -71 -1 -99 3 -143 21 -44 18 -69 22 -127 19 -40 -2 -73 -2 -73 -1 0 1 5 14 10 29 10 26 11 26 98 22 48 -2 93 -8 100 -12z m-1389 -18 c0 -13 -4 -41 -8 -63 l-7 -40 -22 42 c-32 61 -29 83 8 83 25 0 30 -4 29 -22z m1176 -5 c-1 -16 -10 -44 -20 -63 l-19 -35 -7 40 c-14 75 -12 85 20 85 25 0 28 -3 26 -27z m-581 -38 c4 -14 4 -30 1 -35 -11 -18 -56 -11 -84 13 l-27 22 40 11 c60 17 63 16 70 -11z m219 -289 c33 -20 34 -42 2 -80 -22 -28 -26 -29 -50 -16 -21 11 -28 11 -34 2 -12 -20 -27 4 -45 74 -21 80 -20 82 8 77 13 -3 27 1 31 8 6 9 15 4 34 -18 14 -16 38 -37 54 -47z m970 -3 c-13 -9 -23 -26 -23 -39 0 -58 -46 -121 -113 -155 -23 -12 -68 -22 -111 -26 -90 -6 -149 17 -151 61 0 14 3 26 7 26 4 0 8 -11 8 -25 0 -75 193 -53 254 29 34 46 41 82 16 89 -27 7 -25 27 3 27 12 0 43 10 67 23 49 25 82 17 43 -10z m-401 -2 c4 -3 9 -18 12 -32 4 -26 3 -26 -47 -23 -27 2 -56 -1 -64 -7 -10 -9 -13 -5 -13 20 0 19 6 34 15 37 8 4 13 10 10 14 -6 9 76 1 87 -9z m-1578 -20 c14 -5 16 -10 8 -15 -7 -4 -10 -11 -7 -16 2 -4 -20 -6 -50 -4 -30 1 -57 -1 -59 -5 -3 -5 6 -6 19 -3 20 3 24 1 19 -11 -3 -9 -13 -14 -22 -10 -14 4 -15 3 -2 -5 10 -8 18 -8 27 0 8 6 16 8 20 5 3 -4 12 1 20 11 12 16 13 16 7 0 -7 -20 12 -25 19 -5 3 6 6 -1 6 -16 1 -16 -3 -26 -9 -22 -5 3 -10 1 -10 -4 0 -6 5 -11 10 -11 6 0 10 -5 10 -10 0 -6 -11 -3 -25 6 -14 9 -22 20 -19 25 9 15 -13 10 -26 -6 -10 -12 -9 -15 5 -15 22 0 55 -37 55 -62 0 -11 -4 -16 -10 -13 -5 3 -10 2 -10 -4 0 -6 -7 -8 -15 -5 -16 7 -21 34 -5 34 5 0 7 7 4 15 -7 18 -25 20 -21 3 1 -8 -8 -12 -26 -11 -15 1 -25 -2 -22 -8 4 -5 12 -9 20 -9 8 0 20 -9 28 -21 11 -14 23 -19 43 -16 16 3 28 10 27 16 -4 14 34 15 43 0 3 -6 1 -16 -5 -22 -6 -6 -11 -25 -11 -42 -1 -16 -7 -41 -14 -54 -13 -24 -14 -24 -20 -4 -7 21 -39 55 -35 37 3 -19 -1 -34 -12 -34 -5 0 -7 5 -3 11 3 6 -5 4 -19 -6 -25 -16 -25 -16 -32 15 -4 16 -10 28 -15 25 -4 -3 -10 11 -12 30 -5 41 3 44 26 13 l17 -23 -12 25 c-7 13 -18 31 -26 38 -7 8 -11 18 -8 23 4 5 2 9 -2 9 -9 0 -16 35 -16 80 0 14 -2 19 -4 13 -6 -18 -23 -16 -23 1 0 20 19 31 32 18 6 -6 12 -21 13 -35 3 -28 26 -67 39 -67 4 0 3 6 -3 14 -6 8 -11 18 -9 22 1 5 -6 23 -15 41 -21 40 -21 43 1 44 9 0 12 3 5 5 -6 3 -27 -2 -47 -10 -20 -8 -36 -13 -36 -10 0 16 78 35 124 30 36 -4 43 -3 26 3 l-25 9 25 0 c14 0 34 -3 44 -7z m1606 -70 c0 -12 -29 -41 -40 -41 -20 0 -19 20 2 34 25 18 38 20 38 7z m-976 -42 c45 -53 93 -169 74 -180 -27 -18 -45 -9 -56 29 -18 58 -67 128 -111 158 -23 15 -41 28 -41 30 0 2 22 4 49 4 45 0 52 -3 85 -41z m1304 -64 c0 -14 -5 -22 -11 -18 -6 3 -7 1 -3 -6 10 -15 29 -3 22 15 -3 8 -1 14 4 14 12 0 13 -20 2 -36 -4 -7 -26 -17 -49 -24 -24 -7 -43 -16 -43 -19 0 -3 30 -28 65 -54 43 -31 70 -60 80 -84 8 -19 15 -37 15 -40 0 -6 -107 6 -162 20 -43 9 -48 14 -48 38 0 14 7 32 15 39 12 10 21 4 53 -29 45 -47 78 -57 35 -10 -15 17 -38 41 -50 55 -12 13 -20 24 -16 24 3 0 -2 11 -11 25 -25 38 -20 51 33 74 28 11 53 26 56 31 10 16 13 12 13 -15z m-979 -40 c14 -13 12 -15 -13 -15 -27 0 -80 32 -70 43 9 8 66 -11 83 -28z m-73 0 c19 -15 19 -15 -1 -27 -11 -6 -43 -33 -71 -59 -54 -52 -123 -88 -165 -89 -22 0 -28 6 -33 31 -12 61 -5 119 15 119 5 0 9 -15 9 -34 0 -19 5 -38 10 -41 23 -14 114 28 154 71 45 48 54 51 82 29z m924 -13 c0 -7 8 -24 17 -39 17 -25 17 -26 -7 -18 -14 4 -36 16 -49 26 -13 11 -34 19 -46 19 -12 0 -27 6 -33 13 -8 9 4 12 54 12 45 0 64 -4 64 -13z m-1238 -104 l4 -38 -61 0 -60 0 30 25 c17 13 26 24 21 25 -5 0 6 10 25 23 19 13 35 18 36 13 1 -6 3 -28 5 -48z m387 16 c-6 -7 -8 -18 -4 -24 3 -5 2 -10 -3 -10 -15 0 -33 48 -19 53 22 8 39 -4 26 -19z m-49 -33 c0 -14 -1 -14 -10 -1 -8 13 -10 12 -10 -2 0 -14 -9 -18 -42 -18 l-43 1 39 36 c37 34 40 35 53 18 7 -11 13 -26 13 -34z m-420 29 c0 -10 -32 -30 -49 -30 -18 0 -12 28 7 33 30 8 42 7 42 -3z m-345 -40 c-8 -16 -15 -45 -15 -64 0 -19 -3 -41 -6 -50 -7 -19 -35 -21 -53 -3 -10 10 -11 9 -6 -5 7 -18 17 -22 44 -18 10 1 12 -6 7 -27 -4 -15 -11 -32 -16 -36 -13 -14 -48 2 -56 26 -9 32 -32 54 -62 62 -15 4 -29 11 -33 16 -3 6 -25 -1 -50 -16 -56 -32 -79 -32 -79 -2 0 20 9 27 60 42 52 16 67 17 113 6 72 -18 98 -12 116 24 25 49 41 75 46 75 3 0 -1 -13 -10 -30z m1909 -33 c6 -9 7 -19 3 -23 -9 -9 -37 15 -37 33 0 18 20 12 34 -10z m-1463 -16 c10 -27 14 -29 47 -24 20 3 64 16 98 29 53 21 77 24 195 24 74 0 178 -3 232 -7 l97 -6 0 -171 c-1 -96 -9 -241 -19 -331 -16 -141 -22 -169 -53 -236 -47 -101 -104 -183 -178 -258 -67 -66 -211 -161 -246 -161 -29 0 -141 63 -204 115 -81 67 -156 163 -211 271 -65 127 -78 208 -86 536 l-5 237 68 4 c38 1 111 4 162 5 l93 2 10 -29z m864 -31 c10 0 44 5 76 12 50 10 63 9 110 -9 39 -14 54 -25 54 -39 0 -28 -32 -29 -74 -1 l-38 25 -47 -21 c-34 -16 -49 -30 -58 -54 -15 -42 -54 -46 -68 -7 -13 33 -13 34 3 28 8 -3 20 3 28 12 12 16 12 17 -5 11 -27 -11 -46 10 -46 51 l0 35 23 -21 c13 -12 32 -22 42 -22z m-166 -30 c0 -14 -4 -32 -9 -40 -7 -11 -10 3 -9 45 0 43 3 54 9 40 5 -11 9 -31 9 -45z m-1059 -106 c0 -19 4 -33 9 -30 5 4 7 -3 4 -13 -6 -24 9 -190 42 -466 19 -160 48 -432 58 -550 1 -12 -4 -20 -13 -20 -16 0 -14 -11 -70 485 -74 664 -71 630 -44 630 9 0 14 -11 14 -36z m-65 -44 c3 -6 -1 -10 -10 -10 -21 0 -66 -30 -60 -40 6 -10 -24 -70 -36 -70 -5 0 -7 10 -5 23 3 12 5 25 5 30 1 4 8 7 16 7 9 0 12 6 9 15 -4 8 1 17 10 21 9 3 16 11 16 18 0 14 47 19 55 6z m1561 -86 c-20 -14 -12 -19 23 -14 12 1 13 -1 2 -13 -10 -13 -9 -17 6 -27 16 -10 15 -11 -6 -6 l-23 5 22 -24 22 -23 -21 -7 c-11 -3 -25 -4 -31 0 -5 3 -23 -1 -40 -10 -22 -11 -30 -12 -30 -3 0 6 -6 3 -14 -8 -12 -16 -16 -16 -20 -4 -7 19 -1 56 7 53 4 -2 12 -3 18 -3 5 0 7 -4 4 -10 -3 -5 2 -10 11 -10 10 0 15 3 12 6 -4 3 7 18 23 33 16 16 29 32 29 37 0 5 -13 -6 -30 -24 -23 -25 -34 -31 -46 -24 -9 5 -25 7 -36 4 -13 -3 -17 0 -13 10 6 16 35 21 35 6 0 -5 8 -4 19 1 10 6 21 8 24 5 9 -9 29 35 21 47 -9 15 28 40 41 28 7 -7 4 -15 -9 -25z m-6 -133 c0 -5 -10 -21 -22 -36 -18 -23 -22 -25 -30 -11 -11 20 -37 21 -44 1 -4 -8 -10 -13 -15 -10 -16 10 3 34 32 40 16 4 31 5 35 3 3 -2 10 5 15 15 10 16 29 15 29 -2z m-119 -4 c-1 -4 -1 -14 -1 -22 0 -19 -20 -19 -45 2 -17 13 -17 15 -2 10 11 -4 20 -1 24 9 5 14 25 16 24 1z m184 -67 c-4 -24 -1 -41 9 -55 9 -11 16 -29 16 -40 0 -30 28 -65 51 -65 16 0 19 -4 14 -20 -4 -12 0 -31 9 -44 8 -13 12 -32 10 -43 -4 -12 4 -31 20 -50 21 -25 23 -32 11 -37 -18 -7 -20 -47 -3 -64 9 -9 7 -12 -11 -12 -21 0 -23 4 -19 45 2 25 0 45 -3 45 -9 0 -29 72 -23 82 3 4 1 8 -4 8 -12 0 -34 49 -27 61 4 5 2 9 -3 9 -12 0 -44 69 -37 81 4 5 2 9 -3 9 -12 0 -36 85 -27 99 3 6 3 11 -2 11 -11 0 -32 47 -25 55 3 3 16 -5 29 -17 20 -18 23 -29 18 -58z m241 3 c-8 -16 -37 -52 -65 -80 -28 -29 -51 -59 -51 -65 0 -7 20 10 45 37 41 47 63 54 30 11 -8 -11 -15 -29 -15 -41 0 -14 -10 -26 -27 -34 -23 -11 -29 -10 -39 4 -11 14 -7 26 18 67 31 51 99 128 112 128 3 0 0 -12 -8 -27z m-2316 -263 c12 -56 20 -103 18 -106 -4 -3 -41 151 -54 226 -12 66 16 -26 36 -120z m270 114 c0 -8 14 -55 30 -104 17 -49 30 -110 30 -136 0 -28 8 -59 19 -78 23 -39 34 -83 22 -90 -5 -3 -22 -3 -39 0 -29 6 -30 8 -36 82 -4 43 -14 96 -21 120 -18 50 -28 222 -15 222 6 0 10 -7 10 -16z m415 -214 c86 -129 289 -290 365 -290 41 0 161 73 236 143 86 80 151 167 194 258 29 61 30 62 25 24 -5 -37 -55 -492 -55 -501 0 -2 -27 -4 -60 -4 -47 0 -60 3 -60 15 0 8 -9 24 -20 35 -19 19 -33 20 -260 20 -227 0 -241 -1 -260 -20 -11 -11 -20 -27 -20 -35 0 -12 -13 -15 -60 -15 -54 0 -60 2 -64 23 -8 40 -34 302 -30 306 2 2 12 -3 22 -12 10 -10 31 -17 46 -17 l27 0 -31 45 c-33 48 -74 133 -84 175 -4 14 5 1 19 -28 13 -30 45 -85 70 -122z m1565 151 c0 -14 -5 -18 -20 -14 -21 5 -25 15 -13 26 13 14 33 6 33 -12z m-1830 -50 c0 -15 4 -31 9 -36 20 -23 33 -94 33 -181 l-1 -94 27 0 c15 0 39 6 54 14 26 14 26 14 32 -28 20 -146 21 -139 -15 -160 -33 -19 -33 -19 -47 2 -8 12 -19 22 -24 22 -6 0 -5 -7 2 -15 9 -11 10 -19 3 -26 -19 -19 -43 19 -43 67 0 40 2 44 25 44 14 0 28 -6 31 -13 3 -8 18 -24 34 -36 23 -17 30 -18 30 -7 0 8 -8 17 -17 20 -10 3 -33 27 -50 53 -18 26 -33 42 -33 36 0 -7 5 -15 11 -19 8 -5 6 -10 -5 -16 -22 -12 -46 7 -46 37 0 13 -6 25 -14 28 -17 7 -38 75 -29 90 3 6 1 7 -4 4 -16 -10 -35 45 -31 94 3 37 7 44 28 49 23 6 25 10 21 59 -2 37 0 51 8 47 6 -4 11 -20 11 -35z m1840 -15 c0 -12 7 -31 15 -44 13 -18 13 -21 2 -16 -22 8 -79 83 -72 94 10 16 55 -11 55 -34z m23 -83 c7 -4 18 -20 24 -35 18 -41 -8 -26 -44 25 -43 60 -49 76 -19 45 14 -15 32 -31 39 -35z m-2230 -143 l6 -45 -15 45 c-8 25 -16 63 -19 85 l-5 40 14 -40 c7 -23 16 -61 19 -85z m507 75 c0 -18 -5 -25 -19 -25 -28 0 -37 21 -16 37 27 19 35 16 35 -12z m1638 -41 c-9 -20 -9 -30 0 -45 11 -16 9 -19 -9 -19 -15 0 -19 4 -15 16 3 9 6 29 6 45 0 19 5 29 15 29 12 0 13 -4 3 -26z m-1676 0 c21 -8 34 -42 20 -56 -16 -16 -47 -5 -48 17 -1 11 -5 28 -9 39 -6 14 -5 17 6 12 8 -3 22 -9 31 -12z m1663 -94 c-9 -10 -15 -25 -12 -32 2 -7 -6 -21 -19 -31 -13 -10 -24 -13 -24 -7 0 6 7 13 15 16 8 4 13 10 10 14 -9 15 14 60 31 60 16 0 16 -2 -1 -20z m-1875 -121 c0 -9 -42 -30 -48 -24 -2 2 5 12 15 23 18 19 33 19 33 1z m-165 -139 c0 -13 -6 -25 -12 -27 -9 -3 -13 6 -13 27 0 21 4 30 13 28 6 -3 12 -15 12 -28z"></path>
    <path d="M330 2570 c0 -5 5 -12 10 -15 15 -9 12 -25 -5 -25 -8 0 -15 -7 -15 -15 0 -9 6 -12 17 -8 12 5 14 3 8 -8 -6 -11 -5 -12 6 -1 15 14 58 16 78 3 10 -7 7 -12 -15 -23 -26 -12 -29 -18 -29 -61 0 -26 4 -47 9 -47 5 0 7 -3 3 -6 -17 -18 77 -120 125 -136 18 -6 -1 -44 -30 -58 -25 -12 -26 -13 -7 -20 11 -4 23 -6 27 -4 4 3 10 0 13 -6 5 -8 11 -7 21 1 8 6 17 9 20 6 6 -6 34 16 34 27 0 3 -9 6 -20 6 -13 0 -18 5 -14 15 4 9 19 15 36 15 16 0 38 5 48 10 14 7 32 5 67 -9 46 -18 49 -18 67 0 18 17 17 18 -20 25 -54 9 -91 30 -106 58 -19 35 -97 98 -148 120 -25 11 -47 21 -49 22 -2 2 6 15 18 30 26 33 26 39 0 75 -23 32 -54 37 -85 14 -24 -18 -34 -19 -34 -1 0 8 -7 16 -15 20 -8 3 -15 1 -15 -4z m211 -212 c73 -51 111 -95 91 -107 -15 -9 -76 9 -94 27 -7 7 -17 12 -23 12 -15 0 -75 66 -75 82 0 40 26 36 101 -14z"></path>
    <path d="M2479 2575 c0 -11 -3 -32 -5 -47 -5 -30 1 -34 26 -18 10 6 11 10 3 10 -7 0 -13 7 -13 15 0 9 9 15 21 15 18 0 20 -4 15 -25 -5 -19 -2 -25 9 -25 9 0 13 5 10 10 -3 6 4 10 17 10 17 0 19 -3 9 -9 -9 -6 -10 -11 -2 -15 6 -4 18 0 26 8 14 13 13 16 -7 27 -13 7 -27 18 -31 25 -4 8 -18 14 -30 14 -13 0 -28 5 -35 12 -9 9 -12 8 -13 -7z"></path>
    <path d="M2386 2531 c15 -15 74 -23 74 -10 0 6 -9 9 -20 6 -11 -3 -20 -1 -20 4 0 5 -10 9 -22 9 -14 0 -18 -4 -12 -9z"></path>
    <path d="M2304 2431 c-5 -22 -10 -27 -25 -24 -14 4 -19 0 -19 -16 0 -36 19 -61 45 -61 15 0 25 -6 25 -14 0 -8 9 -24 21 -37 12 -14 19 -18 16 -8 -3 9 1 16 9 16 8 0 14 -5 14 -11 0 -7 3 -7 8 -1 12 17 42 14 43 -4 0 -12 2 -12 9 4 5 11 9 14 9 7 1 -7 5 -11 10 -7 5 3 12 1 16 -5 10 -16 35 -12 29 5 -7 17 21 21 31 5 5 -8 11 -7 21 1 8 6 25 9 39 7 18 -4 29 1 40 18 20 30 19 34 -5 34 -14 0 -20 7 -20 21 0 22 11 22 67 3 15 -6 14 -4 -4 15 -12 11 -29 21 -38 21 -8 0 -15 5 -15 12 0 24 -19 -7 -22 -37 -2 -24 -7 -29 -24 -27 -11 1 -29 -7 -39 -18 -20 -22 -35 -26 -35 -9 0 5 5 7 11 3 8 -4 8 0 0 15 -6 11 -20 25 -31 31 -25 13 -70 13 -70 -1 0 -5 -4 -8 -9 -5 -5 3 -15 -2 -22 -11 -10 -12 -10 -14 -1 -9 6 4 12 2 12 -3 0 -22 -21 -10 -40 21 -11 18 -26 35 -34 38 -11 4 -13 9 -5 20 8 11 12 12 16 3 2 -7 16 -13 30 -13 l26 0 -24 18 c-44 34 -59 35 -65 3z m142 -83 c-3 -13 -6 -29 -6 -35 0 -15 -9 -16 -29 -4 -11 7 -10 13 4 35 21 32 40 34 31 4z m58 -7 c3 8 3 3 0 -11 -8 -32 -9 -32 -31 -28 -17 3 -18 7 -10 38 l9 35 13 -24 c9 -18 14 -20 19 -10z"></path>
    <path d="M1120 1398 c0 -14 7 -31 15 -38 23 -19 18 -28 -17 -32 -26 -2 -34 -8 -37 -28 -3 -24 -2 -24 16 -7 20 17 89 25 79 8 -3 -5 11 -12 32 -16 67 -12 107 -55 51 -55 -11 0 -34 -13 -50 -30 -27 -27 -30 -35 -28 -88 1 -32 -1 -64 -5 -70 -4 -7 -1 -12 7 -12 10 0 13 -8 10 -24 -3 -13 3 -41 13 -61 22 -46 109 -142 163 -180 23 -15 41 -32 41 -37 0 -26 -44 -68 -81 -78 -40 -11 -45 -30 -8 -30 10 0 19 -6 19 -14 0 -9 8 -12 25 -8 18 3 25 0 25 -11 0 -14 3 -14 30 1 25 14 33 15 50 4 18 -11 21 -11 18 5 -2 10 3 18 10 19 6 1 17 2 22 3 20 2 9 21 -12 21 -37 0 -52 14 -39 38 9 16 18 19 56 14 30 -3 61 1 90 13 l45 17 80 -41 c76 -40 118 -52 105 -31 -3 6 1 10 10 10 9 0 13 5 10 10 -3 6 2 10 11 10 30 0 3 16 -66 41 -86 30 -123 58 -150 116 -33 70 -188 220 -272 263 l-66 34 39 43 c30 32 39 51 39 77 0 36 -25 92 -50 113 -24 20 -101 16 -138 -7 -40 -24 -42 -25 -42 -2 0 10 -11 29 -25 42 l-25 23 0 -25z m127 -63 c6 0 15 3 19 8 24 23 86 -23 99 -74 5 -21 -1 -35 -34 -73 -33 -39 -39 -51 -31 -66 6 -10 15 -22 21 -25 6 -4 -5 -14 -23 -23 -44 -22 -51 -75 -15 -118 13 -16 33 -45 45 -65 12 -19 34 -42 49 -49 15 -8 41 -25 56 -37 15 -12 47 -31 70 -42 23 -10 51 -26 62 -35 21 -18 20 -18 -82 -2 -35 5 -72 33 -159 120 -62 63 -83 91 -93 127 -7 25 -12 55 -10 65 1 10 -1 33 -5 50 -10 44 6 76 49 99 58 31 65 48 31 84 -15 16 -39 32 -52 35 -14 4 -24 14 -24 24 0 10 3 13 8 7 4 -6 12 -11 19 -10z m153 -287 c38 -23 89 -73 166 -163 62 -71 110 -132 108 -134 -12 -13 -102 -5 -125 10 -14 10 -37 21 -51 24 -14 4 -38 20 -54 36 -15 16 -35 29 -45 29 -18 0 -79 63 -79 82 0 6 -11 21 -25 34 -29 27 -33 69 -8 96 23 26 51 22 113 -14z m44 -364 c-15 -22 -34 -32 -34 -19 0 14 33 54 41 49 5 -3 2 -16 -7 -30z"></path>
    <path d="M1118 1291 c8 -4 13 -11 13 -15 -2 -16 0 -18 14 -6 23 19 18 30 -12 30 -19 0 -24 -3 -15 -9z"></path>
    <path d="M827 565 c4 -16 12 -50 20 -75 l13 -45 -5 43 c-3 24 -12 58 -20 75 l-14 32 6 -30z"></path>
    <path d="M615 2007 c-8 -50 0 -72 15 -47 6 8 10 11 10 6 0 -6 5 -5 11 1 8 8 5 22 -9 49 l-20 39 -7 -48z"></path>
    <path d="M694 2015 c-9 -14 -13 -32 -10 -42 6 -15 8 -15 16 -3 7 11 10 12 10 2 0 -7 5 -10 10 -7 13 8 13 75 0 75 -5 0 -17 -11 -26 -25z"></path>
    <path d="M737 1956 c-7 -17 -57 -22 -57 -6 0 6 -5 10 -11 10 -5 0 -8 -4 -5 -9 4 -5 0 -11 -6 -14 -7 -2 13 -5 45 -6 57 -2 64 2 48 27 -7 11 -9 11 -14 -2z"></path>
    <path d="M1473 1923 c-19 -3 -33 -10 -33 -18 0 -32 -30 -45 -106 -45 -52 0 -74 4 -74 13 0 13 -39 -32 -40 -47 0 -15 153 -1 187 17 18 10 35 28 39 41 5 20 15 26 62 34 56 9 30 13 -35 5z"></path>
    <path d="M2277 1714 c5 -14 1 -16 -25 -12 -18 2 -32 1 -32 -4 0 -4 8 -8 19 -8 10 0 24 -7 31 -15 7 -8 17 -15 22 -15 7 0 6 5 0 13 -6 7 -9 23 -5 35 3 13 1 22 -6 22 -5 0 -8 -7 -4 -16z"></path>
    <path d="M667 1362 c-18 -28 2 -59 48 -76 45 -17 60 -45 34 -62 -8 -4 -7 -9 2 -15 22 -14 24 -11 24 29 0 34 -3 39 -47 59 -37 18 -47 28 -50 50 -2 20 -6 24 -11 15z"></path>
    <path d="M2320 1347 c0 -23 -7 -31 -50 -50 -47 -21 -49 -24 -47 -58 2 -29 5 -35 20 -31 13 3 15 8 8 15 -22 22 -11 45 28 61 46 18 67 48 52 74 -9 14 -10 13 -11 -11z"></path>
    <path d="M2210 1174 c-14 -7 -20 -14 -15 -14 6 0 12 -12 13 -27 1 -15 9 -34 16 -42 12 -12 14 -12 12 0 -1 8 -7 23 -13 34 -11 22 -7 48 7 40 5 -3 7 -12 3 -20 -3 -8 0 -15 6 -15 6 0 11 7 11 15 0 8 5 15 10 15 6 0 10 7 10 15 0 18 -26 18 -60 -1z"></path>
    <path d="M2259 1128 c-7 -24 -7 -58 1 -63 6 -4 10 8 10 29 0 20 -2 36 -5 36 -3 0 -5 -1 -6 -2z"></path>
    <path d="M820 1076 c9 -26 -9 -53 -25 -38 -5 4 -5 1 -1 -5 4 -7 2 -13 -3 -13 -6 0 -11 -4 -11 -10 0 -5 7 -7 16 -3 12 4 15 2 12 -8 -3 -8 -14 -13 -26 -11 -17 2 -22 -2 -22 -17 0 -30 20 -26 53 9 23 24 25 30 12 30 -16 0 -16 2 -1 25 13 19 14 30 6 45 -15 28 -21 25 -10 -4z"></path>
    <path d="M2130 1066 c-13 -13 -13 -49 0 -41 6 3 19 -13 29 -37 11 -24 48 -90 84 -148 l65 -105 -35 -18 c-19 -10 -49 -38 -66 -63 -112 -158 -77 -384 66 -419 22 -6 26 -4 21 9 -3 9 -10 16 -16 16 -5 0 -6 5 -2 12 4 7 3 8 -5 4 -27 -17 -95 93 -104 167 -13 102 48 227 126 256 34 13 36 -1 1 -19 -28 -15 -74 -86 -74 -113 0 -10 -4 -17 -10 -17 -5 0 -7 -7 -4 -15 4 -8 1 -21 -4 -28 -8 -9 -7 -27 4 -63 9 -27 17 -59 19 -71 3 -22 38 -63 55 -63 6 0 10 -5 10 -11 0 -5 5 -7 10 -4 6 3 15 3 22 -1 16 -10 68 -11 68 -1 0 5 5 7 12 5 6 -2 20 4 30 14 10 10 23 16 29 13 12 -8 39 13 39 29 0 6 -5 3 -11 -6 -14 -24 -28 -23 -22 2 3 11 10 20 15 20 5 0 7 3 5 8 -3 4 -2 25 2 47 6 35 10 40 30 37 20 -3 21 -2 10 11 -8 8 -17 13 -20 11 -3 -1 -12 5 -21 15 -14 16 -12 19 16 31 20 9 25 15 16 18 -8 3 -21 12 -28 21 -11 14 -12 13 -3 -6 15 -29 14 -36 -3 -30 -7 3 -18 1 -23 -4 -6 -6 -10 -4 -10 5 0 8 4 13 8 11 4 -3 6 6 5 19 0 13 -4 22 -8 20 -7 -5 -40 50 -34 57 1 2 -6 12 -16 22 -10 9 -18 13 -18 8 0 -6 5 -13 10 -16 6 -3 10 -11 10 -17 0 -7 -14 7 -32 30 -18 23 -36 42 -41 42 -4 0 -6 4 -3 8 5 8 -34 80 -103 195 -19 31 -20 37 -7 37 10 0 16 9 16 23 0 18 2 19 11 7 9 -12 9 -11 4 5 -4 11 -8 30 -8 42 -1 12 -4 20 -8 17 -4 -2 -6 -16 -3 -29 2 -14 0 -25 -5 -25 -6 0 -8 -7 -5 -15 4 -8 1 -15 -5 -15 -6 0 -11 5 -11 11 0 5 -5 7 -12 3 -6 -4 -8 -3 -5 3 4 6 -3 23 -14 38 -16 20 -19 29 -10 38 6 6 11 14 11 17 0 10 -40 6 -50 -4z m306 -573 c14 -96 -30 -173 -100 -173 -64 0 -96 58 -96 170 0 67 26 126 70 163 l33 28 43 -73 c24 -40 46 -92 50 -115z"></path>
    <path d="M2292 870 c2 -8 19 -16 36 -17 25 -2 32 1 32 15 0 15 -2 15 -10 2 -9 -13 -11 -13 -20 0 -8 12 -10 12 -10 1 0 -11 -3 -11 -17 0 -14 12 -16 12 -11 -1z"></path>
    <path d="M2480 850 c14 -26 13 -33 -6 -26 -8 3 -12 2 -9 -4 3 -6 15 -10 26 -10 16 0 18 3 10 19 -6 10 -8 21 -5 23 3 3 -2 8 -11 12 -13 4 -14 2 -5 -14z"></path>
    <path d="M2430 802 c0 -7 -12 -10 -30 -8 -30 3 -40 -7 -18 -20 6 -4 13 -3 15 3 3 8 14 8 33 3 28 -8 50 3 36 17 -3 4 -6 0 -6 -8 -1 -10 -5 -8 -15 5 -8 11 -15 15 -15 8z"></path>
    <path d="M2531 709 c-1 -4 6 -26 14 -49 20 -56 19 -62 -7 -55 -20 5 -21 4 -5 -5 9 -6 21 -9 26 -6 5 3 12 -1 15 -10 4 -9 9 -14 13 -11 3 4 0 13 -7 22 -7 8 -9 15 -5 15 4 0 2 7 -5 15 -6 8 -9 19 -5 25 3 5 1 10 -5 10 -7 0 -9 8 -5 21 5 14 3 19 -3 15 -6 -3 -13 0 -15 6 -3 7 -6 10 -6 7z"></path>
    <path d="M670 553 c11 -59 31 -125 36 -121 6 6 -30 158 -37 158 -4 0 -3 -17 1 -37z"></path>
    <path d="M1355 205 c0 -29 4 -45 13 -45 6 0 12 9 12 20 0 11 6 20 14 20 9 0 12 -7 9 -20 -4 -16 0 -20 21 -20 16 0 26 5 26 15 0 8 7 15 15 15 8 0 15 -7 15 -15 0 -11 12 -15 44 -15 25 0 48 4 51 10 4 6 13 5 24 -2 20 -12 51 -5 51 13 0 8 -4 8 -15 -1 -19 -16 -35 -4 -35 27 0 22 4 25 25 21 16 -4 25 -1 25 8 0 7 -10 11 -23 10 -33 -4 -47 -14 -47 -35 0 -17 -18 -41 -31 -41 -4 0 -7 14 -7 30 1 18 6 30 15 30 7 0 13 4 13 9 0 4 -13 8 -29 7 -27 -1 -28 -3 -23 -38 6 -49 -12 -50 -29 -3 -7 19 -16 35 -20 35 -4 0 -13 -16 -19 -35 -16 -48 -34 -45 -27 5 4 31 2 40 -10 40 -10 0 -14 -6 -10 -20 4 -15 0 -20 -13 -20 -13 0 -17 5 -13 20 3 13 0 20 -9 20 -9 0 -13 -13 -13 -45z"></path>
    <path d="M780 151 c0 -10 7 -21 15 -25 8 -3 15 -10 15 -17 0 -6 -7 -9 -15 -5 -8 3 -15 1 -15 -4 0 -16 40 -11 46 5 4 9 -4 24 -17 36 l-24 20 23 -6 c13 -4 22 -2 22 4 0 6 -11 11 -25 11 -18 0 -25 -5 -25 -19z"></path>
    <path d="M865 130 c0 -23 5 -40 11 -40 7 0 9 11 7 28 l-4 27 25 -30 26 -30 0 28 c0 16 -4 26 -10 22 -5 -3 -15 3 -22 15 -20 31 -33 24 -33 -20z"></path>
    <path d="M950 151 c-25 -47 36 -83 64 -38 8 12 8 22 0 35 -16 25 -51 27 -64 3z m45 -21 c0 -27 -22 -39 -31 -16 -8 22 3 49 19 43 6 -2 12 -14 12 -27z"></path>
    <path d="M1025 130 c0 -37 2 -40 27 -40 33 0 37 6 31 48 -4 27 -10 32 -32 32 -24 0 -26 -3 -26 -40z m45 20 c0 -5 -6 -10 -12 -11 -10 0 -10 -2 0 -6 14 -5 17 -33 3 -33 -12 0 -24 37 -16 50 8 13 25 13 25 0z"></path>
    <path d="M1105 130 c0 -39 1 -40 37 -40 47 0 56 15 27 47 l-24 25 23 -6 c13 -5 22 -3 22 3 0 6 -11 11 -25 11 -18 0 -25 -5 -25 -19 0 -10 7 -21 15 -25 24 -9 17 -23 -11 -23 -24 0 -26 3 -22 33 2 20 0 34 -7 34 -5 0 -10 -18 -10 -40z"></path>
    <path d="M1840 150 c-21 -40 30 -82 58 -47 5 6 11 21 13 31 2 11 10 21 18 24 10 3 12 -4 9 -32 -3 -26 0 -36 10 -36 9 0 12 10 10 31 -2 25 1 32 16 35 15 2 17 -3 14 -32 -4 -31 -2 -34 23 -34 21 0 28 6 34 28 l7 27 10 -27 c5 -16 15 -28 23 -28 9 0 7 12 -8 42 l-21 43 -15 -38 c-17 -47 -34 -48 -29 -2 l4 35 -46 0 c-25 0 -51 -5 -57 -11 -8 -8 -13 -8 -17 0 -11 18 -44 12 -56 -9z m50 -20 c0 -20 -5 -30 -15 -30 -18 0 -30 24 -21 45 10 28 36 17 36 -15z"></path>
    <path d="M2125 130 c0 -27 4 -40 14 -40 7 0 11 6 8 14 -3 7 0 19 6 25 8 8 8 11 -1 11 -7 0 -12 4 -12 10 0 5 12 9 26 8 23 -2 25 -6 22 -35 -4 -30 -2 -33 23 -33 15 0 31 5 34 10 4 7 11 8 18 2 7 -6 30 -10 52 -10 40 -1 41 0 37 32 -3 25 0 33 12 33 11 0 16 -10 16 -34 0 -20 5 -33 13 -33 9 0 12 11 9 35 -4 29 -1 34 12 29 9 -3 16 -1 16 5 0 16 -152 15 -168 -1 -7 -7 -12 -20 -12 -30 0 -10 -2 -18 -4 -18 -2 0 -12 -3 -22 -7 -14 -5 -16 -2 -12 15 4 12 2 22 -4 22 -5 0 -6 5 -3 11 4 6 13 8 21 5 8 -3 14 -1 14 4 0 6 -26 10 -57 10 l-58 0 0 -40z m181 19 c4 -8 9 -7 15 2 6 10 9 4 9 -16 0 -26 -4 -31 -25 -33 -27 -2 -41 17 -31 43 6 18 22 20 32 4z"></path>
  </g>
  <title>Title</title>
</svg>
